<svg xmlns="http://www.w3.org/2000/svg" xmlns:xlink="http://www.w3.org/1999/xlink" width="1890" height="1058.66"><rect width="1890" height="1058.66" rx="5" ry="5" class="a"/><svg y="0%" x="0%"><circle cx="20" cy="20" r="6" fill="#ff5f58"/><circle cx="40" cy="20" r="6" fill="#ffbd2e"/><circle cx="60" cy="20" r="6" fill="#18c132"/></svg><svg height="998.66" viewBox="0 0 185 99.866" width="1850" x="15" xmlns="http://www.w3.org/2000/svg" xmlns:xlink="http://www.w3.org/1999/xlink" y="50"><style>@keyframes k{0%{transform:translateX(0)}.13%{transform:translateX(-185px)}1.32%{transform:translateX(-370px)}1.68%{transform:translateX(-555px)}1.92%{transform:translateX(-740px)}2.48%{transform:translateX(-925px)}3.21%{transform:translateX(-1110px)}3.25%{transform:translateX(-1480px)}17.23%{transform:translateX(-1665px)}18.41%{transform:translateX(-2220px)}29.38%{transform:translateX(-2405px)}30.98%{transform:translateX(-2775px)}41.8%{transform:translateX(-2960px)}44.82%{transform:translateX(-3145px)}44.85%{transform:translateX(-3330px)}54.97%{transform:translateX(-3515px)}67.14%{transform:translateX(-3700px)}68.75%{transform:translateX(-3885px)}71.44%{transform:translateX(-4070px)}75.64%{transform:translateX(-4255px)}78.23%{transform:translateX(-4440px)}79.51%{transform:translateX(-4625px)}82.03%{transform:translateX(-4810px)}85.8%{transform:translateX(-5365px)}to{transform:translateX(-5550px)}}.a{fill:#282d35}.f{fill:#b9c0cb;white-space:pre}.g{fill:#dbab79}.h{fill:#b9c0cb;font-weight:700;white-space:pre}</style><g font-family="Monaco,Consolas,Menlo,'Bitstream Vera Sans Mono','Powerline Symbols',monospace" font-size="1.67"><defs><symbol id="1"><text y="1.67" class="f">bash-5.0$</text></symbol><symbol id="2"><text y="1.67" class="f">bash-5.0$</text><text x="10.02" y="1.67" class="f">sacc</text></symbol><symbol id="3"><path class="g" d="M0 0h6v2.171H0z"/><text y="1.67" class="h">SACC&gt;</text><text x="7.014" y="1.67" class="f">Enter</text><text x="13.026" y="1.67" class="f">your</text><text x="18.036" y="1.67" class="f">AWS</text><text x="22.044" y="1.67" class="f">Access</text><text x="29.058" y="1.67" class="f">Key</text><text x="33.066" y="1.67" class="f">ID:</text></symbol><symbol id="4"><text y="1.67" class="f">input:</text></symbol><symbol id="5"><text y="1.67" class="f">input:</text><text x="7.014" y="1.67" class="f">AKIA2ULJ6FO7YHNSOZ4V</text></symbol><symbol id="6"><path class="g" d="M0 0h6v2.171H0z"/><text y="1.67" class="h">SACC&gt;</text><text x="7.014" y="1.67" class="f">Enter</text><text x="13.026" y="1.67" class="f">your</text><text x="18.036" y="1.67" class="f">AWS</text><text x="22.044" y="1.67" class="f">Secret</text><text x="29.058" y="1.67" class="f">Key:</text></symbol><symbol id="7"><text y="1.67" class="f">input:</text><text x="7.014" y="1.67" class="f">NwaIWi9HEpqeumAeeDFY6/8Al2LQw39Ot8af26b8</text></symbol><symbol id="8"><path class="g" d="M0 0h6v2.171H0z"/><text y="1.67" class="h">SACC&gt;</text><text x="7.014" y="1.67" class="f">Enter</text><text x="13.026" y="1.67" class="f">your</text><text x="18.036" y="1.67" class="f">MFA</text><text x="22.044" y="1.67" class="f">device</text><text x="29.058" y="1.67" class="f">number:</text><text x="37.074" y="1.67" class="f">(Format:</text><text x="46.092" y="1.67" class="f">arn:aws:iam::123456789123:mfa/user.name)</text></symbol><symbol id="9"><text y="1.67" class="f">input:</text><text x="7.014" y="1.67" class="f">arn:aws:iam::730903489471:mfa/root-account-mfa-device</text></symbol><symbol id="10"><path class="g" d="M0 0h6v2.171H0z"/><text y="1.67" class="h">SACC&gt;</text><text x="7.014" y="1.67" class="f">Next</text><text x="12.024" y="1.67" class="f">we&apos;ll</text><text x="18.036" y="1.67" class="f">need</text><text x="23.046" y="1.67" class="f">your</text><text x="28.056" y="1.67" class="f">MFA</text><text x="32.064" y="1.67" class="f">code.</text><text x="38.076" y="1.67" class="f">Please</text><text x="45.09" y="1.67" class="f">prepare</text><text x="53.106" y="1.67" class="f">your</text><text x="58.116" y="1.67" class="f">device</text><text x="65.13" y="1.67" class="f">and</text><text x="69.138" y="1.67" class="f">wait</text><text x="74.148" y="1.67" class="f">for</text><text x="78.156" y="1.67" class="f">the</text><text x="82.164" y="1.67" class="f">input</text><text x="88.176" y="1.67" class="f">prompt!</text></symbol><symbol id="11"><text y="1.67" class="f">Enter</text><text x="6.012" y="1.67" class="f">MFA</text><text x="10.02" y="1.67" class="f">Code</text><text x="15.03" y="1.67" class="f">here:</text><text x="21.042" y="1.67" class="f">808839</text></symbol><symbol id="12"><path class="g" d="M0 0h6v2.171H0z"/><text y="1.67" class="h">SACC&gt;</text><text x="7.014" y="1.67" class="f">Done!</text><text x="13.026" y="1.67" class="f">AWS</text><text x="17.034" y="1.67" class="f">credentials</text><text x="29.058" y="1.67" class="f">stored</text><text x="36.072" y="1.67" class="f">in</text><text x="39.078" y="1.67" class="f">/Users/ivan.iliev/.aws/credentials</text><text x="74.148" y="1.67" class="f">and</text><text x="78.156" y="1.67" class="f">are</text><text x="82.164" y="1.67" class="f">valid</text><text x="88.176" y="1.67" class="f">until</text><text x="94.188" y="1.67" class="f">2021-03-18T18:52:12+00:00</text></symbol><symbol id="a"><path fill="transparent" d="M0 0h185v46H0z"/></symbol><symbol id="b"><path fill="#6f7683" d="M0 0h1.102v2.171H0z"/></symbol></defs><path class="a" d="M0 0h185v99.866H0z"/><g style="animation-duration:29.6997s;animation-iteration-count:infinite;animation-name:k;animation-timing-function:steps(1,end)"><svg width="5735"><svg><use xlink:href="#a"/><use xlink:href="#b" x="-.004"/></svg><svg x="185"><use xlink:href="#a"/><use xlink:href="#b" x="9.996"/><use xlink:href="#1"/></svg><svg x="370"><use xlink:href="#a"/><use xlink:href="#b" x="10.996"/><text y="1.67" class="f">bash-5.0$</text><text x="10.02" y="1.67" class="f">s</text></svg><svg x="555"><use xlink:href="#a"/><use xlink:href="#b" x="11.996"/><text y="1.67" class="f">bash-5.0$</text><text x="10.02" y="1.67" class="f">sa</text></svg><svg x="740"><use xlink:href="#a"/><use xlink:href="#b" x="12.996"/><text y="1.67" class="f">bash-5.0$</text><text x="10.02" y="1.67" class="f">sac</text></svg><svg x="925"><use xlink:href="#a"/><use xlink:href="#b" x="13.996"/><use xlink:href="#2"/></svg><svg x="1110"><use xlink:href="#a"/><use xlink:href="#b" x="-.004" y="2.146"/><use xlink:href="#2"/></svg><svg x="1295"><use xlink:href="#a"/><use xlink:href="#b" x="-.004" y="4.317"/><use xlink:href="#2"/><use xlink:href="#3" y="2.171"/></svg><svg x="1480"><use xlink:href="#a"/><use xlink:href="#b" x="6.996" y="4.317"/><use xlink:href="#2"/><use xlink:href="#3" y="2.171"/><use xlink:href="#4" y="4.342"/></svg><svg x="1665"><use xlink:href="#a"/><use xlink:href="#b" x="26.996" y="4.317"/><use xlink:href="#2"/><use xlink:href="#3" y="2.171"/><use xlink:href="#5" y="4.342"/></svg><svg x="1850"><use xlink:href="#a"/><use xlink:href="#b" x="-.004" y="6.488"/><use xlink:href="#2"/><use xlink:href="#3" y="2.171"/><use xlink:href="#5" y="4.342"/></svg><svg x="2035"><use xlink:href="#a"/><use xlink:href="#b" x="-.004" y="8.659"/><use xlink:href="#2"/><use xlink:href="#3" y="2.171"/><use xlink:href="#5" y="4.342"/><use xlink:href="#6" y="6.513"/></svg><svg x="2220"><use xlink:href="#a"/><use xlink:href="#b" x="6.996" y="8.659"/><use xlink:href="#2"/><use xlink:href="#3" y="2.171"/><use xlink:href="#5" y="4.342"/><use xlink:href="#6" y="6.513"/><use xlink:href="#4" y="8.684"/></svg><svg x="2405"><use xlink:href="#a"/><use xlink:href="#b" x="46.996" y="8.659"/><use xlink:href="#2"/><use xlink:href="#3" y="2.171"/><use xlink:href="#5" y="4.342"/><use xlink:href="#6" y="6.513"/><use xlink:href="#7" y="8.684"/></svg><svg x="2590"><use xlink:href="#a"/><use xlink:href="#b" x="-.004" y="10.83"/><use xlink:href="#2"/><use xlink:href="#3" y="2.171"/><use xlink:href="#5" y="4.342"/><use xlink:href="#6" y="6.513"/><use xlink:href="#7" y="8.684"/></svg><svg x="2775"><use xlink:href="#a"/><use xlink:href="#b" x="6.996" y="13.001"/><use xlink:href="#2"/><use xlink:href="#3" y="2.171"/><use xlink:href="#5" y="4.342"/><use xlink:href="#6" y="6.513"/><use xlink:href="#7" y="8.684"/><use xlink:href="#8" y="10.855"/><use xlink:href="#4" y="13.026"/></svg><svg x="2960"><use xlink:href="#a"/><use xlink:href="#b" x="59.996" y="13.001"/><use xlink:href="#2"/><use xlink:href="#3" y="2.171"/><use xlink:href="#5" y="4.342"/><use xlink:href="#6" y="6.513"/><use xlink:href="#7" y="8.684"/><use xlink:href="#8" y="10.855"/><use xlink:href="#9" y="13.026"/></svg><svg x="3145"><use xlink:href="#a"/><use xlink:href="#b" x="-.004" y="15.172"/><use xlink:href="#2"/><use xlink:href="#3" y="2.171"/><use xlink:href="#5" y="4.342"/><use xlink:href="#6" y="6.513"/><use xlink:href="#7" y="8.684"/><use xlink:href="#8" y="10.855"/><use xlink:href="#9" y="13.026"/></svg><svg x="3330"><use xlink:href="#a"/><use xlink:href="#b" x="-.004" y="17.343"/><use xlink:href="#2"/><use xlink:href="#3" y="2.171"/><use xlink:href="#5" y="4.342"/><use xlink:href="#6" y="6.513"/><use xlink:href="#7" y="8.684"/><use xlink:href="#8" y="10.855"/><use xlink:href="#9" y="13.026"/><use xlink:href="#10" y="15.197"/></svg><svg x="3515"><use xlink:href="#a"/><use xlink:href="#b" x="20.996" y="17.343"/><use xlink:href="#2"/><use xlink:href="#3" y="2.171"/><use xlink:href="#5" y="4.342"/><use xlink:href="#6" y="6.513"/><use xlink:href="#7" y="8.684"/><use xlink:href="#8" y="10.855"/><use xlink:href="#9" y="13.026"/><use xlink:href="#10" y="15.197"/><text y="19.038" class="f">Enter</text><text x="6.012" y="19.038" class="f">MFA</text><text x="10.02" y="19.038" class="f">Code</text><text x="15.03" y="19.038" class="f">here:</text></svg><svg x="3700"><use xlink:href="#a"/><use xlink:href="#b" x="21.996" y="17.343"/><use xlink:href="#2"/><use xlink:href="#3" y="2.171"/><use xlink:href="#5" y="4.342"/><use xlink:href="#6" y="6.513"/><use xlink:href="#7" y="8.684"/><use xlink:href="#8" y="10.855"/><use xlink:href="#9" y="13.026"/><use xlink:href="#10" y="15.197"/><text y="19.038" class="f">Enter</text><text x="6.012" y="19.038" class="f">MFA</text><text x="10.02" y="19.038" class="f">Code</text><text x="15.03" y="19.038" class="f">here:</text><text x="21.042" y="19.038" class="f">8</text></svg><svg x="3885"><use xlink:href="#a"/><use xlink:href="#b" x="22.996" y="17.343"/><use xlink:href="#2"/><use xlink:href="#3" y="2.171"/><use xlink:href="#5" y="4.342"/><use xlink:href="#6" y="6.513"/><use xlink:href="#7" y="8.684"/><use xlink:href="#8" y="10.855"/><use xlink:href="#9" y="13.026"/><use xlink:href="#10" y="15.197"/><text y="19.038" class="f">Enter</text><text x="6.012" y="19.038" class="f">MFA</text><text x="10.02" y="19.038" class="f">Code</text><text x="15.03" y="19.038" class="f">here:</text><text x="21.042" y="19.038" class="f">80</text></svg><svg x="4070"><use xlink:href="#a"/><use xlink:href="#b" x="23.996" y="17.343"/><use xlink:href="#2"/><use xlink:href="#3" y="2.171"/><use xlink:href="#5" y="4.342"/><use xlink:href="#6" y="6.513"/><use xlink:href="#7" y="8.684"/><use xlink:href="#8" y="10.855"/><use xlink:href="#9" y="13.026"/><use xlink:href="#10" y="15.197"/><text y="19.038" class="f">Enter</text><text x="6.012" y="19.038" class="f">MFA</text><text x="10.02" y="19.038" class="f">Code</text><text x="15.03" y="19.038" class="f">here:</text><text x="21.042" y="19.038" class="f">808</text></svg><svg x="4255"><use xlink:href="#a"/><use xlink:href="#b" x="24.996" y="17.343"/><use xlink:href="#2"/><use xlink:href="#3" y="2.171"/><use xlink:href="#5" y="4.342"/><use xlink:href="#6" y="6.513"/><use xlink:href="#7" y="8.684"/><use xlink:href="#8" y="10.855"/><use xlink:href="#9" y="13.026"/><use xlink:href="#10" y="15.197"/><text y="19.038" class="f">Enter</text><text x="6.012" y="19.038" class="f">MFA</text><text x="10.02" y="19.038" class="f">Code</text><text x="15.03" y="19.038" class="f">here:</text><text x="21.042" y="19.038" class="f">8088</text></svg><svg x="4440"><use xlink:href="#a"/><use xlink:href="#b" x="25.996" y="17.343"/><use xlink:href="#2"/><use xlink:href="#3" y="2.171"/><use xlink:href="#5" y="4.342"/><use xlink:href="#6" y="6.513"/><use xlink:href="#7" y="8.684"/><use xlink:href="#8" y="10.855"/><use xlink:href="#9" y="13.026"/><use xlink:href="#10" y="15.197"/><text y="19.038" class="f">Enter</text><text x="6.012" y="19.038" class="f">MFA</text><text x="10.02" y="19.038" class="f">Code</text><text x="15.03" y="19.038" class="f">here:</text><text x="21.042" y="19.038" class="f">80883</text></svg><svg x="4625"><use xlink:href="#a"/><use xlink:href="#b" x="26.996" y="17.343"/><use xlink:href="#2"/><use xlink:href="#3" y="2.171"/><use xlink:href="#5" y="4.342"/><use xlink:href="#6" y="6.513"/><use xlink:href="#7" y="8.684"/><use xlink:href="#8" y="10.855"/><use xlink:href="#9" y="13.026"/><use xlink:href="#10" y="15.197"/><use xlink:href="#11" y="17.368"/></svg><svg x="4810"><use xlink:href="#a"/><use xlink:href="#b" x="-.004" y="19.514"/><use xlink:href="#2"/><use xlink:href="#3" y="2.171"/><use xlink:href="#5" y="4.342"/><use xlink:href="#6" y="6.513"/><use xlink:href="#7" y="8.684"/><use xlink:href="#8" y="10.855"/><use xlink:href="#9" y="13.026"/><use xlink:href="#10" y="15.197"/><use xlink:href="#11" y="17.368"/></svg><svg x="4995"><use xlink:href="#a"/><use xlink:href="#b" x="38.996" y="19.514"/><use xlink:href="#2"/><use xlink:href="#3" y="2.171"/><use xlink:href="#5" y="4.342"/><use xlink:href="#6" y="6.513"/><use xlink:href="#7" y="8.684"/><use xlink:href="#8" y="10.855"/><use xlink:href="#9" y="13.026"/><use xlink:href="#10" y="15.197"/><use xlink:href="#11" y="17.368"/><path class="g" d="M0 19.539h6v2.171H0z"/><text y="21.209" class="h">SACC&gt;</text><text x="7.014" y="21.209" class="f">Done!</text><text x="13.026" y="21.209" class="f">AWS</text><text x="17.034" y="21.209" class="f">credentials</text><text x="29.058" y="21.209" class="f">stored</text><text x="36.072" y="21.209" class="f">in</text></svg><svg x="5180"><use xlink:href="#a"/><use xlink:href="#b" x="-.004" y="21.685"/><use xlink:href="#2"/><use xlink:href="#3" y="2.171"/><use xlink:href="#5" y="4.342"/><use xlink:href="#6" y="6.513"/><use xlink:href="#7" y="8.684"/><use xlink:href="#8" y="10.855"/><use xlink:href="#9" y="13.026"/><use xlink:href="#10" y="15.197"/><use xlink:href="#11" y="17.368"/><use xlink:href="#12" y="19.539"/></svg><svg x="5365"><use xlink:href="#a"/><use xlink:href="#b" x="9.996" y="21.685"/><use xlink:href="#2"/><use xlink:href="#3" y="2.171"/><use xlink:href="#5" y="4.342"/><use xlink:href="#6" y="6.513"/><use xlink:href="#7" y="8.684"/><use xlink:href="#8" y="10.855"/><use xlink:href="#9" y="13.026"/><use xlink:href="#10" y="15.197"/><use xlink:href="#11" y="17.368"/><use xlink:href="#12" y="19.539"/><use xlink:href="#1" y="21.71"/></svg><svg x="5550"><use xlink:href="#a"/><use xlink:href="#b" x="-.004" y="23.856"/><use xlink:href="#2"/><use xlink:href="#3" y="2.171"/><use xlink:href="#5" y="4.342"/><use xlink:href="#6" y="6.513"/><use xlink:href="#7" y="8.684"/><use xlink:href="#8" y="10.855"/><use xlink:href="#9" y="13.026"/><use xlink:href="#10" y="15.197"/><use xlink:href="#11" y="17.368"/><use xlink:href="#12" y="19.539"/><text y="23.38" class="f">bash-5.0$</text><text x="10.02" y="23.38" class="f">exit</text></svg></svg></g></g></svg></svg>